<?xml version="1.0" encoding="UTF-8"?>
<svg id="Layer_1" xmlns="http://www.w3.org/2000/svg" viewBox="0 0 150 200">
  <defs>
    <style>
      .cls-1, .cls-2 {
        fill: #6f2989;
      }

      .cls-3 {
        fill: #b069b2;
      }

      .cls-2 {
        stroke: #6f2989;
        stroke-miterlimit: 10;
        stroke-width: .15px;
      }
    </style>
  </defs>
  <rect class="cls-3" x="0" width="150" height="200" rx="8.06" ry="8.06"/>
  <path class="cls-1" d="M12.57,170.16v-2.46c0,3.98,0,8.06,0,12.17-.07,1.93.54,3.76,1.78,5.18,1.22,1.41,3,2.32,4.86,2.48-2.02-.18-3.96-1.29-5.16-2.99-.6-.84-1.03-1.81-1.22-2.83-.09-.52-.12-1.02-.12-1.57l.02-1.77c.03-4.73.07-9.49.1-14.12.02-9.27-.06-18.03-.36-24.96.16-.75.28-5.48.34-10.06.02-2.3.05-4.55.06-6.25,0-1.7,0-2.86-.02-2.95-.05-3.62-.1-7.28-.15-10.97.03,2.55.05,5.08.08,7.59-.03-2.52-.05-5.05-.08-7.59-.25-23.39-.14-48.8-.02-75.09,0-1.82.01-4.04.02-6.54,0-1.25,0-2.58.01-3.97,0-.69,0-1.4,0-2.13.01-.7-.02-1.52.03-2.14.1-1.31.58-2.64,1.44-3.74.84-1.11,2.05-1.97,3.42-2.42.69-.21,1.41-.33,2.14-.34.83,0,1.67,0,2.51,0,1.69,0,3.38,0,5.08.01,13.59.05,27.23.1,34.71.12,2.17.01,4.32.02,6.51.03q-3.63-.03-7.25-.06c9.12-.08,17.38-.15,25.37-.22-1.41-.05-1.65-.09-5-.15l4.08.03c3.72-.13,12.29-.13,16.32-.18-.87.07,2.31.08,5.11.09l-1.11-.05c5.32,0,11.06,0,16.66,0,1.4,0,2.79,0,4.17,0,.69,0,1.37,0,2.05,0,.68,0,1.36,0,1.95.03,1.22.12,2.37.55,3.35,1.18.98.64,1.76,1.51,2.32,2.44.63,1.05.8,1.98.87,2.52.14.68.11,1.37.13,2.16v2.28s.04,4.56.04,4.56c-.09-.7-.08,7.56-.14,3.21.05,6.85.11,13.7.16,20.24.01,23.23.08,47.95.24,71.97l.03-.59c.06,8.41.24,15.82.18,26.04.12,7.3.19,17.68.38,20.58.03,4.21.06,7.15.08,10.08,0,.73.03,1.46-.04,2.25-.08.78-.28,1.55-.59,2.34-.66,1.53-1.83,3.09-3.74,4.14.99-.56-.77.73-2.67.99-.46.1-.91.1-1.3.13-.36,0-.65.02-.83.02-.35.01-.22.03.8.05,1.47.02,2.59-.3,3.46-.66.87-.37,1.49-.8,2.07-1.25.54-.48,1.06-.96,1.54-1.64.48-.67,1-1.51,1.37-2.72l-.07.14c.2-.71.36-1.43.37-2.17.04-.73.02-1.37.03-2.06l.02-4.07.05-8.15c.03-5.43.05-10.87.08-16.32.03-10.9.07-21.83.1-32.82-.01-14.69-.03-30.6-.04-45.86-.06-16.43-.12-34.2-.18-48.3,0-.84,0-1.62,0-2.37,0-.38.01-.72,0-1.1-.02-.39-.02-.77-.08-1.15-.19-1.5-.75-2.9-1.7-4.17-1.1-1.41-2.68-2.52-4.5-3.06-.9-.29-1.91-.36-2.81-.36-.88,0-1.77,0-2.67,0-3.6,0-7.33,0-11.12,0-7.57.01-15.35.02-22.66.03.27,0,.54,0,.72,0-7.77-.02-13.59-.04-21.17-.07.04.03-1.14.03-1.71.04-1.32-.13-44.66.26-47.33.19-.79,0-1.6,0-2.44.01h-1.5c-.51,0-1.07.01-1.6.11-1.07.17-2.1.54-3.04,1.09-1.87,1.09-3.31,2.91-3.93,5-.16.52-.26,1.06-.32,1.6l-.05.81v.75c-.02,1-.02,2-.03,3-.02,1.99-.03,3.98-.05,5.94-.07,7.86-.12,15.43-.11,22.3.06,2.98.13,6.33.18,8.86-.05,2.43.05,2.9.04,5.83-.25,7.43-.15,11.79-.06,7.95,0,6.12.01,12.26.02,17.69.02,2.52.04,5.02.06,7.57.02,2.16-.02,3.36-.08,4.45.04,5.53-.03,3.9-.05,9.69-.09,1.4.14,14.53.11,16.17v-.95c-.03,6.7-.2,11.15-.21,17.7,0,9.1-.02,18.61-.03,27.96,0,1.17,0,2.33,0,3.5.03,1.16-.07,2.29.12,3.61.39,2.54,1.93,4.83,4.07,6.15,1.06.67,2.26,1.1,3.48,1.28,1.28.16,2.33.08,3.43.1,2.19,0,4.35,0,6.45,0,.17-.09-3.72.02-3.91-.1,9.94.05,19.97.1,29.99.15,1.8.04,4.01.08,4.85.1,3.2.03,1.89-.04,4.24-.03l.32.08c3.43-.07,5.01.09,8.24.06.17-.03,1.35-.04,2.5-.04.06.09,3.53,0,3.37.08h.03c.69,0,1.18,0,2.03,0,1.32-.03,13.62-.29,14.96-.31h.62c1.84.01,2.63-.05,1.55-.07h2.27s-.26.01-.26.01h2.26c.42.01.89.05.25.09,1.28-.03,2.72-.05,4-.03-3.55-.07-7.96-.15-11.7-.22,1.53-.03,4.29.02,5.95,0,1.98.06,6.05.11,9.22.15.7,0,1.18-.1,2.76-.06.77.07,1.78,0,3.1.05-1.51.04-2.98.02-4.51.02.26.08,3.72.06,4.93.08.59,0,3.51-.01,5.37-.02-.81.08,1.5.05,2.6.09,1.25,0,2.05-.02,1.54-.05.4-.08-4.98-.05-3.23-.14.46.04,2.91.03,4.23.02.02-.05-.9-.04-.05-.08,1.47.01,3.02-.05,3.86,0-.27.01-.88,0-1.31,0,1.91,0-10.35.3-7.88.28-.64-.04,10.87-.27,9.6-.28-1.16-.02.83-.08-.37-.1l-1.34.06c-1.65-.02-2.32-.1-1.74-.13,2.76,0-7.84.32-5.48.27l-.96-.02c1-.03,3.67-.06,4.7,0,0-.02.34-.04.82-.05.48,0,1.09-.02,1.65-.03h.4c1.15-.02,2.77,0,2.02-.07-6.77,0,4.45-.47-2.1-.49,2.75.1-.93.1-3.81.12-.28-.03-1.56-.08-3.64-.11-1.8,0-1.06.04-1.4.06-1-.02-2.9-.04-2.65-.1-1.4.06-2.24-.04-3.92-.02-1.48.03.1.03-.95.06-2.22,0-5.33-.02-7.1-.03-.68-.05-2.77-.14-1.25-.22,3.37.01-1.28.13,2.22.11-1.51-.11,3.1-.03,3.74-.12-1.12-.05-3.38-.05-5.27-.04l.38.02c-1.67.01-5.01.04-6.81-.02.43-.04-.36-.07.86-.08h-2.3c-.29,0-.59.02.07.03-1.08.03-2.17.01-3,0-.25-.04-12.22.18-11.84.15-1.65,0-2.06-.06-3.67-.02-.02,0,.21,0,.63,0,.42,0,1.02,0,1.74-.01,1.44-.01,3.35-.03,5.21-.05,3.7-.04,7.15-.08,6.06-.07-1.41-.05-18.75.21-19.78.13-1.23,0-2.7.01-2.42.06-2.07-.02.62-.08-.85-.12-.03,0,.12.02-.35.02l-1.42-.05c-3.22.07-7.93-.02-11.3.07.98-.05,2.09-.13,4.26-.17l.38.02c.31-.01,2.09-.03,2.04-.07-2.06-.03-3.82-.02-5.99.02-.4-.01-.86-.03-1.18-.04,0,0,.04.01.03.02-.71-.03-.63-.03-.37-.05.04,0,.08,0,.15,0-1.29-.13-8.08.08-11.84.01-1.09.03-.13,0-1.48.05-3.85-.04-6.5-.07-10.51-.12-1.28.05-1.38.08.17.13l-3.03-.02c2.76-.14-5.67-.14-2.63-.28-.89-.03-2.7-.04-4.4-.02-.09.02-.19.04-.55.06-.35,0-.91.04-1.89-.17-.67-.17-1.12-.36-1.44-.52-.33-.16-.55-.28-.74-.41-.2-.12-.38-.24-.62-.44-.24-.18-.54-.44-.92-.86-.33-.43.25.17.21.08-1.21-1.26-1.45-2.04-1.68-2.72-.2-.72-.38-1.33-.37-3.07-.01-2.25-.02-6.68-.1-6.79,0-3.03.06-3.03.13-2.73Z"/>
  <g>
    <path class="cls-1" d="M61.48,157.89c0,.35-.17.46-.23.75-.12.41-.17,1.16-.58,1.22-.12.06-.29.06-.41.06h-.35c-.17,0-.29,0-.46.12-.29.17-.81.41-1.16.41-.12,0-.17,0-.29-.06-.41-.29-.75-.81-.98-1.22-.23-.41-.81-.52-1.22-.98-.41-.52-.81-1.22-1.39-1.33-.52-.06-.7-.81-1.22-.81-.81.17-.93.52-1.39.58-.46.12-.58.81-.87,1.22-.29.35-.75.58-.75.87,0,.06,0,.12.06.17.17.17.23.41.23.64,0,.29-.06.52-.12.75-.06.23-.06.46-.06.81s0,.7-.06.98c0,.23-.06.46-.06.7s.06.52.35.75c.46.52.64,1.22.93,1.56.35.35.64,1.16.81,1.56s.41,1.04.98,1.1c.29.06.46.06.7.06.17,0,.41,0,.58.06.35.06.58.46,1.27.46.75,0,.98.12,1.56.12h.41c.41,0,.75,0,1.16-.29.29-.17.58-.52.81-.75.12-.12.46-.46.93-.46.12,0,.17,0,.29.06.29.12.41.17.41.35,0,.06,0,.23-.12.35l-.46.58c-.17.29-.29.7-.58.81-.52.17-1.27.81-1.68.87-.41.12-1.04.75-1.51.93-.12.06-.17.06-.29.06-.46,0-1.04-.23-1.39-.23-.52.06-1.04.46-1.97.46-.98,0-1.56-.12-2.14-.46-.58-.35-1.56-.93-1.97-.99-.41-.06-1.04-.64-1.33-1.04-.35-.41-.58-.81-1.1-.98-.46-.17-.93-.87-1.04-1.39-.06-.46-.64-.98-1.16-1.39-.46-.41-.81-.98-.93-1.45,0-.06-.06-.12-.06-.23,0-.46.35-1.1.69-1.39.41-.35.81-1.16.98-1.56.23-.58.64-.98,1.22-1.39s.93-1.33,1.39-1.45c.46-.06.64-.93.98-1.45.29-.46.98-.87,1.27-1.04.35-.17.7-.75,1.16-.75s.87-.06,1.39-.29c.46-.29,1.1-.52,1.62-.52.46,0,1.22.35,1.62.41.41.12,1.45,0,1.97.23.46.29.98.52,1.45.58.41.06.52.46.93.64s.75.58.75,1.04v.29c0,.23.12.29.35.87.06.17.06.35.06.46Z"/>
    <path class="cls-1" d="M84.18,166.58c0,.35-.35.64-.46.87-.17.35-.41.69-.75.87-.41.17-.98.7-1.16.98-.17.35-.46.7-1.04.81-.17.06-.35.06-.52.06h-.41c-.17,0-.35,0-.52.12-.23.12-.41.17-.64.17s-.46-.06-.69-.17c-.46-.29-.93-.64-1.22-.87-.17-.06-.23-.23-.23-.41s.06-.35.12-.58c0-.46-.12-.58-.23-.58-.06,0-.17.06-.23.12-.29.29-.7.81-1.16.93-.41.12-.52.58-.98.93-.52.35-.99.75-1.56.81-.46.06-.7.23-.99.23-.12,0-.23-.06-.35-.12-.35-.12-.64-.23-.93-.23-.12,0-.23,0-.35.06-.29.12-.69.23-1.1.23-.23,0-.52-.06-.81-.17-.81-.29-.98-.98-1.27-1.16l-1.33-1.16c-.29-.23-.7-.75-.7-1.22,0-.12.06-.23.12-.35.29-.58.52-1.45,1.16-1.5.7-.06,1.16-1.16,1.56-1.51.46-.35,2.08-1.51,2.49-1.51.46,0,1.27-.06,1.62-.17.41-.12.98-.58,1.27-.58.06,0,.98,0,1.45-.17.17-.06.29-.06.46-.06.35,0,.7.12.93.23.06.06.12.06.17.06.23,0,.35-.35.35-.75v-.81c0-.23,0-.41-.12-.58-.23-.29-.29-.93-.29-1.22s-.58-.41-.81-.69c-.23-.35-.64-.64-.98-.81-.12-.06-.23-.06-.35-.06-.29,0-.46.12-.7.12s-.64.12-.98.12c-.58,0-.75.46-.75.75s.17.58.17.98c-.06.7-.41.93-.46,1.27s-.64.93-.93,1.04c-.06,0-.17.06-.29.06-.35,0-.81-.12-1.1-.17-.41-.06-1.04-.29-1.51-.7-.46-.35-.87-.64-1.1-1.27-.06-.17-.06-.29-.06-.46,0-.46.17-.93.41-1.1.29-.17.58-.46.81-.52,1.1-.29.98-.93,1.5-1.04.58-.12,1.1-.17,1.56-.41.52-.23,1.51-.87,2.03-.98.46-.06,1.33-.46,1.74-.64.06-.06.23-.06.35-.06.35,0,.81.12,1.22.12h.29c.41,0,.81.35,1.04.69.12.23.35.35.58.35.12,0,.23,0,.35-.06.41,0,.35.35.52.35.06-.06.12-.12.17-.12.29,0,.64.58.81.98.23.52.52.58.58.98.06.35.35.93.35,1.33,0,.12,0,.23-.06.29-.06.12-.12.29-.12.41,0,.29.12.46.17.64.06.23.23.64.23,1.1-.06.46-.12.46-.12.64,0,.12.06.29.17.58.17.41.23.64.23.87,0,.17-.06.29-.06.46-.06.23-.06.41-.06.58s0,.41.12.64c.12.35.17.7.17,1.04,0,.17,0,.41-.06.64s-.06.41-.06.64c0,.46.12.87.35.87.29,0,.75-.29.98-.35.23-.06.75-.64,1.1-.75.29-.12.41-.41.7-.41.17.17.17.35.17.46ZM76.3,164.9c0-.29-.06-.46-.29-.46-.29,0-.64-.12-.98-.29-.41-.17-.29-.52-.7-.7-.35-.17-.75-.52-1.1-.52-.06,0-.17,0-.23.06-.41.17-.52.23-1.04.35-.23.06-1.27,0-1.27.46,0,.41-.69.58-.98.93-.12.17-.17.41-.17.7,0,.35.06.69.17.98.17.46.58.75,1.04.98.41.23.98.69,1.5.87.23.12.35.12.52.12.12,0,.29,0,.46-.12.41-.17.29-.35.81-.52.52-.12.58-.35,1.04-.46.41-.12.41-.41.69-.64.29-.23.52-.93.52-1.39v-.35Z"/>
    <path class="cls-1" d="M106.71,156.04c0,.29-.17.29-.52.58-.41.23-.69.41-.93.41-.06,0-.12-.06-.17-.06-.23-.06-.52-.17-.98-.17h-.23c-.41.06-.81.17-1.16.17-.12,0-.23,0-.35-.06-.46-.12-.64-.23-.98-.23-.29,0-.75.29-1.1.29-.46-.12-.81-.23-1.1-.23-.12,0-.17.06-.29.06-.41.06-1.45.29-1.79.29s-.93-.17-1.22-.23c-.12-.06-.46-.12-.75-.12-.17,0-.35,0-.52.12-.23.12-.23.35-.23.58s0,.46-.06.58c-.12.17-.17.41-.17.64,0,.29.06.58.06.75.06.29.17.87.17,1.22,0,.12-.06.23-.06.29-.06.23-.17.58-.17.93,0,.12,0,.23.06.35.06.17.12.41.12.75,0,.41-.06.93-.06,1.04,0,.29.06,1.27.06,1.68,0,.17-.06.35-.06.52,0,.23.06.41.23.64.35.35.41.75.81,1.1.29.29.98.46,1.45.46.58-.06,1.22-.23,1.62-.23s.98-.41,1.39-.52c.41-.12,1.04-.75,1.45-.81.41-.06.52-.41,1.04-.75.58-.29,1.04-.75,1.56-.98.06,0,.12-.06.17-.06.35,0,.64.35.64.64,0,.06,0,.12-.06.17-.23.23-.52.29-.81.64-.29.35-.46,1.04-1.04,1.16-.52.12-.93.46-1.22.69-.23.17-.46.87-.87.93s-.98.58-1.22.58c-.29,0-1.27.06-1.56.35s-1.1.58-1.85.58c-.7,0-.93.23-1.22.23-.41-.06-1.04-.23-1.39-.23-.12,0-.23,0-.23.06-.17.23-.52.58-.87.58-.06,0-.17,0-.23-.06-.41-.23-.98-.58-1.39-.7-.41-.12-1.27-.98-1.39-1.33-.06-.17-.06-.35-.06-.58,0-.29,0-.58.12-.75.17-.35.23-1.45.23-1.97v-.23c0-.46-.12-.87-.23-1.45,0-.12-.06-.23-.06-.35,0-.41.17-.64.35-.93.06-.12.12-.41.12-.69,0-.46-.06-1.04-.12-1.45,0-.35-.06-.69-.06-1.04,0-.29.06-.52.17-.7.06-.12.12-.23.12-.35,0-.41-.29-.98-.29-1.27,0-.06-.35-.69-.64-.69-.06,0-1.16.17-1.68.17-.41,0-.64-.17-.93-.17-.12,0-.23.06-.41.12-.12.06-.17.06-.29.06-.35,0-.75-.23-1.1-.23-.64.17-1.04.35-1.39.35-.52-.06-.98-.23-1.39-.35-.41-.17-.58-.17-.64-.69,0-.52.75-.87,1.27-.87h.29c.29,0,.58-.06.87-.06h.23c.41.06,1.22.23,1.68.23.41,0,.81-.29,1.22-.29.06,0,.17,0,.23.06.35.12.93.23,1.39.23s.99-.52,1.1-.87c0-.41-.12-.7-.29-1.04-.06-.12-.06-.23-.06-.35,0-.41.23-.81.35-1.04,0-.06.06-.12.06-.17,0-.29-.35-.69-.35-.93,0-.29,0-.41-.35-.52-.17-.06-.23-.29-.23-.46,0-.23.12-.52.35-.64.41-.17,1.22-1.22,1.68-1.27.46-.06,1.16-.64,1.51-.81.35-.12.58-.81,1.04-.93.12,0,.29-.06.41-.06.41,0,.87.17,1.04.41.29.35.98.75,1.04,1.22,0,.46-.46,1.22-.58,1.51v1.39c0,.29-.12.75-.29,1.27-.12.29-.12.64-.12.93v.75c-.12.35-.23,1.16-.23,1.45,0,.12.12.12.29.12.29,0,.75-.06,1.04-.12.12-.06.29-.06.41-.06.35,0,.69.12.93.29.06.06.12.06.17.06.23,0,.52-.23.98-.23h.81c.29,0,.52,0,.87.06.17.06.29.06.41.06.35,0,.64-.17.93-.23.12-.06.23-.06.41-.06.41,0,.98.12,1.22.17.06,0,.7-.29,1.1-.29.46.06.93.17,1.33.17h.52c.35,0,.75.06.87.52,0,.17.06.23.06.35Z"/>
  </g>
  <g>
    <path class="cls-2" d="M55.5,35.18l-1.47-5.44c-.49-1.83,1.65-3.21,3.11-2.01l5.17,4.23c.41.34.94.49,1.47.42l9.01-1.13c.23-.03.47-.02.7.04l6.86,1.65c.48.12.99.04,1.42-.21l8.48-4.88c1.43-.82,3.16.39,2.89,2.01l-2.1,12.38c-.05.28-.03.56.04.84l2.53,9.29c.14.51.06,1.06-.21,1.51l-2.79,4.65c-.37.62-.37,1.4,0,2.01l21.47,35.28c.13.22.22.47.26.72l4.6,30.35c.08.5-.05,1.02-.35,1.43l-5.64,7.78c-.37.51-.95.8-1.58.8h-53.04c-.27,0-.54-.06-.79-.17l-20.11-7.26c-.36-.16-1.96-4.35-2.39-5.95-.25-.95.24-1.94,1.15-2.31l5.17-3.09c.19-.08.38-.19.54-.33l3.07-1.24c.35-.3.79-.46,1.24-.47l4.06-.05h0c.88.6,1.5,1.48,1.79,2.46s-.27,2.08-1.28,2.41l-7.74,1.75c-1.7.55-1.82,2.91-.19,3.63l14.65,4.77c.47.21,1.01.22,1.49.04l4.76-1.84c.72-.28,1.2-.95,1.24-1.71l1.19-23.1c.01-.22.06-.43.14-.63l5.04-12.44c.16-.41.19-.86.06-1.28l-8.35-28.44c-.04-.13-.09-.26-.16-.38l-6.48-9.69c-.23-.43-.29-.93-.18-1.4l1.22-14.03c.08-.32.08-.66,0-.98Z"/>
    <g>
      <circle class="cls-3" cx="78.06" cy="43.31" r="1.4"/>
      <path class="cls-3" d="M78.15,43.88h-.02s.1,0,.16,0c-.25-.22-.18-.48-.36.1.02-.31.03-.47,0-.4-.03.05-.07.08-.1.11.02-.02.04-.03.06-.06-.02.02-.04.04-.06.06-.24.16-.34-.12-.24-.27.03-.09.12-.26.23-.24h.03s-.03,0-.06,0c-.07-.06-.11-.14-.13-.21-.04-.02-.08-.05-.14-.07h.04c-.09-.11-.03-.15-.04-.22.04.06.07.05.09.05l-.03-.03c.08-.03.14-.12.22-.14,0,0,.03.02.04.04.02-.02.04-.05.06-.07.01.09.07.07.05.13.03-.12.09-.05.15-.16.19,0,.41,0,.71.09l.02-.03c.11.02.32,0,.33.16.16.03.27.16.47.16.06.13.17.18.22.33.09-.04.12.15.19.08.13-.12.02-.12.11-.23h-.03c.09-.49-.07-1.05-.44-1.46-.31-.19-.62-.45-.99-.53-.4-.08-.84-.02-1.13.14-.07.05-.14-.02-.22-.04-.28.13-.63.31-.84.59,0,0,.01,0,.01,0-.11.14-.27.18-.36.34.02.01.01.04.02.06-.06-.02-.15.25-.15.51,0,.27.06.51.02.54,0,.02,0,.04.01.05-.07.32-.21.77-.03,1.07.08.04.17.08.26.09-.02.08.08.03.1.09-.11.29.06.3.06.17.11.08.2.19.3.26.06.02.11.04.17.05.05,0,.05.05.04.12.12.03.06.07.17.15,0,.1.36,0,.38.02h-.02c.13.06.2.25.36.27.44.11.92-.06,1.28-.23-.04-.08-.07.06-.13-.05.21-.08.48-.12.67-.29.05-.01.12-.02.16-.02.08-.04,0-.07.05-.1l.07.05c0-.11.16-.05.18-.14-.03-.02,0-.05,0-.07.08.05.04-.08.11-.04h0s.01-.03.04-.05c0-.05-.08-.45-.11-.48h.02c.01-.05-.04-.09-.07-.07l.02-.05h0s.02-.04.02-.04c.01,0,.05,0,.09.02-.02-.04-.03-.08,0-.1-.07.07-.18.14-.3.19-.02-.04.05-.08.05-.12.07-.02.14-.1.2-.16,0-.02-.09-.05-.05-.07.07,0,0-.04.06-.06.03.04,0,.07,0,.11.08.01.07-.08.1-.1-.02-.02.01-.08,0-.13.08.03.05-.03.1-.06.01-.03-.02-.05-.05-.04-.08-.01-.06.12-.14.07.04,0,.03-.07.03-.1-.05,0-.04.02-.08,0,.01-.03-.04-.07,0-.09.01,0,0,.02,0,.03,0-.05.29.26.26.2-.04,0-.26-.28-.27-.24-.02.03-.08-.02-.1,0l.05.03s-.1.05-.13.03c.01-.06.31.19.26.14l-.02.02s-.05-.09,0-.11c-.05,0-.06-.03-.08-.06h0s-.01-.07-.07-.05c0,.14-.46-.09-.49.03.1-.04.1.02.11.07-.03,0-.09.02-.11.05,0,.03.03.02.06.03-.03.01-.05.04-.1.03.06.03-.05.03-.03.06.03.03.03,0,.05.03-.01.03-.04.08-.06.11-.05,0-.14,0-.21-.04.02-.04.12.05.11,0-.12,0-.02-.05-.1-.08-.05,0-.06.03-.05.06h.02s.02.08-.05.08c-.04-.02-.07-.02-.07-.04l-.02.02s.02.02.03.01c.02.02,0,.03-.02.03-.04-.02.09.22.06.21-.01.02-.07,0-.04.03.04.02-.02-.26-.03-.22-.04-.01.07.33-.02.3,0,.02-.01.04.02.06-.03.01-.06-.06-.1-.06,0,0,.02.01.01.02l-.05-.02c.02.08-.08.06-.05.16-.02-.04-.07-.11-.08-.16h.02s0-.03-.04-.05c-.04,0-.04.02-.03.07l-.03-.02h.01s-.03,0-.04-.02h0c-.09-.09-.01.11-.09.09,0,.02.01.02.01.05-.06-.01-.11-.03-.16-.04.02.05.02.07.07.11h-.04c-.04-.14-.12-.1-.15-.24-.02-.03-.04-.03-.04,0,.01.03.03.09.02.1-.04-.04-.03-.02-.07-.06-.02-.04-.02-.06-.03-.1,0,.07-.05-.09-.07-.08-.01.02-.04.03-.02.11-.02,0-.03-.06-.04-.13Z"/>
    </g>
    <g>
      <path class="cls-3" d="M69.21,91.83l5.3-2.75c1.69-.76,3.43-1.14,5.11-.35l6.33,5.16-10.13-5.24-6.61,3.17Z"/>
      <path class="cls-3" d="M77.1,89.16s.09,0,.14,0c-.43.04-.91.12-1.38.24.55-.03,1.1-.01,1.58-.02.48,0,.89-.03,1.34-.21,0,.08.05.17.12.26.05.07.22.2.18.22,0,.02,0,.04,0,.05.05.06.1.1.13.13.08.08.14.12.16.11.22.1.43.21.64.33-.13-.08-.27-.16-.43-.25.15.09.29.17.43.25,1.32.76,2.52,1.88,3.76,3.04.35.31.94.84,1.55,1.39l1.12-1.71c-.8-.45-1.62-.93-2.05-1.2-.12-.08-.24-.15-.36-.22q.19.13.39.27c-.56-.19-1.07-.36-1.55-.55.06.08.05.13.22.28l-.22-.15c-.27,0-.76-.25-1.02-.32.08-.04-.09-.14-.25-.23l.04.07c-.6-.34-1.33-.66-1.87-.94-.08-.04-.12-.09-.14-.13l-.55-.22c.08-.06-.39-.3-.12-.22-.44-.1-.81-.37-1.23-.46-.61-.3-1.23-.6-1.89-.92-.29.15-.58.3-.87.46-.2.11-.41.23-.62.34-.39.23-.8.47-1.22.72h.05c-.46.3-.81.68-1.43.91-.37.31-.95.66-1.03.92-.48.26-.63.44-1.09.72.17.03-.42.33-.15.28.38-.03.34-.14.66-.18l-.02-.03c1.32-.47,2.62-1.01,3.92-1.58.34-.2.7-.38,1.07-.56l.71-.33.1.05c.45.21.93.43,1.4.65.47.2.94.41,1.38.6.21.08.31.22.45.34.76.35,1.69.86,2.55,1.25-.01,0-.03-.02-.04-.02.45.22.74.48,1.18.68.01-.03.08,0,.12.01.02.14,2.3.95,2.73,1.18l5.05,2.72-4.4-3.71s-.05-.05-.06-.06c-.05-.03-.09-.06-.13-.09-.76-.7-1.43-1.56-2.13-2.1-.19-.08-.39-.17-.56-.22-.09-.14-.18-.08-.31-.21-.21-.5-.5-.59-.36-.37-.33-.22-.62-.49-.9-.7-.13-.08-.27-.17-.42-.26-.12-.07-.16-.15-.17-.24-.3-.2-.18-.18-.45-.44-.03-.12-.75-.48-1.01-.62l.09.03c-.17-.08-.27-.13-.36-.19-.08-.05-.18-.11-.28-.16-.18-.1-.38-.21-.62-.25-1.39-.34-2.87.09-3.94.49.02.09.23-.11.29,0-.31.11-.67.21-.99.34-.3.12-.6.24-.9.38-.11.03-.26.06-.32.05-.2.06-.09.1-.23.16l-.06-.07c-.17.16-.33.07-.5.19,0,.04-.06.07-.13.11-.04-.08-.2.11-.23.03h0s-.07.05-.12.06c-.07.07-.64.64-.72.73h-.04c-.1.06-.12.15-.05.13l-.13.06h.01s-.13.05-.13.05c-.03,0-.07-.02-.05-.07-.06.07-.13.12-.22.15.23-.06.52-.12.77-.15-.07.07-.25.11-.34.17-.14,0-.4.08-.6.14-.04.03-.02.13-.13.14-.08-.04-.1.06-.2.05.07-.08.16-.11.25-.15-.05-.06-.24.06-.32.08-.02.04-.2.1-.3.18.01-.09-.11,0-.19,0-.08.03-.11.08-.07.09.02.09.31-.1.25.03-.05-.02-.18.06-.25.11.02.04.07,0,.04.07-.09.03-.15.13-.22.11,0-.02.05-.03.07-.04-.11.05.46-.58.33-.48.06.02-.5.57-.42.53.08-.01,0,.1.07.08l.05-.09c.1-.03.18.02.16.06-.16.08.3-.51.19-.4h.07s-.18.15-.27.14c.02.04-.05.1-.11.14h-.03c-.06.06-.15.1-.08.13.38-.21-.04.55.35.37-.2,0,0-.12.17-.22.03.02.13.03.26,0,.1-.06.04-.06.05-.1.07,0,.19-.05.2,0,.05-.1.15-.03.23-.1.07-.07-.02-.02.03-.08.13-.06.3-.13.42-.19.06.02.22.04.17.16-.2.09.02-.15-.18-.03.14.06-.16.12-.16.22.09.01.22-.05.32-.12h-.03c.09-.06.27-.19.4-.18,0,.05.05.05-.01.1l.13-.06s.02-.04-.02-.03c.05-.06.12-.08.18-.08.03.03.62-.52.61-.49.09-.05.15,0,.22-.09,0-.04-.84.6-.72.52.1,0,.98-.74,1.07-.7.07-.04.15-.09.11-.12.13-.04,0,.09.1.08,0,0-.02-.02.01-.03h.11c.15-.15.46-.21.62-.39-.04.07-.06.18-.17.28h-.03s-.11.08-.09.12c.13-.04.23-.09.33-.2h.08s0-.02,0-.02c.05,0,.05,0,.04.03,0,0,0,0,0,.01.13.07.43-.31.67-.36.06-.05,0-.02.06-.08.25-.08.4-.09.64-.16.05-.08.05-.1-.06-.12l.18-.05c-.11.19.38,0,.25.21.06.01.17-.02.26-.07,0-.04,0-.1.12-.14.19-.01.14,0,.29,0,.05.04,0,.07.02.1.2-.12.21.05.41,0,.12-.04.37-.09.36-.17.17-.02.18.04.17.11Z"/>
    </g>
    <g>
      <ellipse class="cls-3" cx="64.37" cy="42.71" rx=".85" ry="2"/>
      <path class="cls-3" d="M65.66,42.47c-.02-.09-.05-.16-.08-.23.05-.38-.19-.53-.27-.9-.15-.33-.23-.54-.61-.84-.11.05-.3-.05-.54.03-.25.07-.41.27-.42.4-.07.16-.03.27.05.18-.09.19-.14.11-.18.29l-.04-.08c-.04.05-.09.1-.1.18l.04.1c-.13.19-.02.34-.09.55.07-.14.03.07.09.06-.03.03-.06.17-.07.12-.04.19.08.37-.01.48l.03.07c.05.12,0,.21,0,.33h.04c.03.08.04.21.02.28.01.19.15.41.27.57.04.19.1.08.2.2.03.11.18.2.19.26-.1-.07-.19-.04-.27-.18,0,.08-.16-.23-.14-.07.11.12.21.28.36.38.15.11.36.09.46-.03.05.13.32-.21.34-.33h.03c.06-.09.11-.16.13-.34.06-.2.08-.4.17-.57.12-.25,0-.57-.06-.68-.09.3.03.61-.18.81.07-.2.03-.22,0-.39l-.04.08v-.07c-.05.03-.08-.06-.11-.05l-.03.24c.05-.12.08-.03.11.01l-.03.12s.05-.1.06,0c-.02.05,0,.12-.05.17l-.06-.11c.03.16-.15.23-.13.38h-.09c-.01.05-.03.09-.04.13l-.02-.02s-.05.08-.07.12c-.02.07,0,.09.02.12-.03.04-.05.08-.07.08v-.07s-.03.02-.04.02c.02,0,0,.04.02.05-.02,0-.02,0-.03-.04-.01.03,0-.03-.03.03-.02-.06-.13-.22-.18-.37l-.07-.06c-.02-.21-.1-.29-.15-.52l.02.02-.07-.12c.02-.18-.08-.24-.03-.46.03-.22-.04-.33-.12-.41-.03-.12.04-.25.06-.35l.02.07.05-.08c.01-.14.04-.14.05-.33.1-.22-.03-.23-.04-.35.06-.06.12-.12.18-.17h-.02c0-.15.02-.17.23-.3l-.03-.05c.1.03.13-.07.27-.02.08.02.15.22.27.29.08.25.27.31.33.55,0,.15.11.23.02.27v-.02s-.09.07-.09.07h.07c-.01.08.03.2-.04.28l.14.19s0-.1,0-.16h-.02s-.03-.17-.02-.23l.03.07c0-.08.04-.02.06,0-.01.17.05.12.07.25,0,.03-.01.09-.03.07.02.08-.03.28.04.28v.02c.11-.03.22-.11.33-.24Z"/>
    </g>
    <g>
      <line class="cls-3" x1="61.26" y1="47.56" x2="50.65" y2="44.11"/>
      <path class="cls-3" d="M58.96,46.52l-.04-.02c.14.04.29.1.43.16-.29-.19-.65-.4-.96-.29,0-.11-.29-.26-.31-.24-.07,0-.14,0-.21-.02.05,0,.1.01.14.02-.05,0-.1-.01-.14-.02-.44-.06-.89-.24-1.35-.43-.25-.1-.96-.36-1.22-.47-.04-.02-.08-.03-.11-.05q.06.03.12.06c-.17-.03-.33-.05-.48-.08.02.02.02.04.07.08l-.07-.03c-.08.02-.23-.03-.31-.04.02-.02-.03-.04-.08-.06l.02.02c-.19-.07-.41-.13-.58-.18-.02,0-.04-.02-.05-.03l-.17-.04s-.13-.07-.04-.06c-.13,0-.25-.07-.38-.07-.42-.13-.87-.25-1.31-.34h0c-.16-.02-.31,0-.49-.08-.14,0-.34-.04-.41,0-.15-.04-.22-.03-.38-.06.03.04-.16-.01-.09.04.08.07.1.04.17.1h0c.37.16.75.31,1.14.46.27.06.55.17.83.25.3.08.62.17.88.23.06.01.1.05.15.08.24.06.53.17.8.24,0,0,0,0-.01,0,.14.04.23.11.37.14,0,0,.02,0,.04,0,.01.05.83.18.87.21.01,0,.03,0,.05,0,.28.11.55.29.8.36.06,0,.13,0,.18,0,.04.03.06,0,.11.02.11.12.2.12.14.06.11.02.22.07.32.1.05,0,.09.02.14.02.04,0,.06.02.07.05.1.02.07.03.17.07.02.04.27.04.3.06h-.02c.12.04.18.12.3.16.32.13.68.22.98.33.01-.03-.07-.02-.06-.06.18.06.34.16.52.22.03.02.06.05.08.06.05.03.04,0,.08.01v.03c.07,0,.08.06.14.07,0,0,.03,0,.05,0,0,.03.06.02.05.04h0s.02,0,.04.01c.03,0,.27,0,.3-.01h0s.05,0,.04,0h.04s0,.02,0,.02h.04s.01.04,0,.04c.03,0,.05,0,.07.01-.06-.04-.13-.09-.19-.14.03,0,.08.03.11.04.03.03.1.07.15.1.01,0,.03-.03.06,0,0,.03.03,0,.05.03-.03,0-.06-.01-.08-.02,0,.03.06.04.08.05.01,0,.06.02.1.02-.02.02.02.02.04.04.02.01.04,0,.03,0,.02-.02-.08-.05-.04-.06,0,.02.05.03.07.03,0-.01-.01-.02,0-.03.03.01.06,0,.07.02,0,0-.02,0-.02,0,.03.01-.22.04-.17.04,0-.02.22-.02.2-.03-.02-.01.02-.02,0-.03h-.03s-.03-.03-.02-.04c.05.02-.17.05-.13.05h-.01s.07,0,.08.01c0-.01.03-.01.05-.01h0s.05.02.04,0c-.12-.04.13-.12.01-.17.04.05-.03.03-.08.01,0-.01-.02-.04-.05-.06-.03,0-.02,0-.03.01-.02-.01-.05-.03-.04-.05-.03.01-.04-.03-.07-.03-.03,0,0,0-.02.01-.04-.02-.09-.04-.12-.05,0-.02-.04-.06,0-.08.06.02-.04.03.03.05-.02-.04.06,0,.08-.02-.01-.02-.06-.04-.09-.04h0s-.09,0-.12-.04c.01-.01,0-.02.02-.02l-.04-.02s-.01,0,0,.01c-.02,0-.04,0-.05-.02,0-.01-.24-.01-.23-.02-.03,0-.03-.03-.06-.03,0,0,.3.05.26.04-.02-.02-.36-.04-.37-.07-.02,0-.05-.01-.05,0-.03-.02.02-.02,0-.04,0,0,0,0,0,0l-.02-.03c-.06,0-.14-.05-.21-.04.02,0,.05-.03.09-.03h0s.04.01.04,0c-.03-.02-.07-.03-.11-.03,0,0-.01-.01-.02-.02,0,0,0,0,0,0,0-.01,0-.01,0-.02,0,0,0,0,0,0-.01-.05-.15-.02-.21-.06-.02,0,0,0-.03,0-.06-.04-.11-.07-.18-.1-.03,0-.03.02-.01.04l-.05-.02c.06-.03-.09-.08-.02-.1-.01-.02-.04-.03-.08-.03,0,.01-.02.03-.06.01-.05-.03-.04-.02-.08-.05,0-.02.01-.02.01-.03-.07,0-.05-.05-.11-.07-.04,0-.12-.03-.13,0-.05-.02-.05-.04-.04-.06Z"/>
    </g>
    <g>
      <line class="cls-3" x1="61.26" y1="49.68" x2="52.35" y2="48.83"/>
      <path class="cls-3" d="M59.28,49.22h-.04c.12,0,.24.02.37.05-.26-.12-.57-.23-.8-.05-.01-.11-.27-.18-.28-.16-.06.01-.11.02-.17.03.04,0,.08,0,.12-.02-.04,0-.08.01-.12.02-.36.05-.74-.02-1.13-.1-.22-.04-.81-.12-1.03-.17-.03,0-.06-.01-.1-.02q.05.01.11.03c-.14.02-.27.03-.39.04.02.02.02.03.07.06l-.06-.02c-.06.04-.19.02-.25.04.02-.02-.03-.03-.07-.04l.02.02c-.16-.02-.35-.02-.49-.04-.02,0-.03-.01-.04-.02h-.14s-.11-.03-.04-.05c-.11.03-.21,0-.31.02-.35-.03-.72-.04-1.09-.02h0c-.13.02-.25.07-.4.04-.11.03-.27.04-.32.1-.13,0-.18.02-.31.03.03.03-.12.03-.07.06.08.05.09.01.15.06h0c.32.07.65.13.98.17.22,0,.46.04.69.05.25.01.52.02.73.01.05,0,.09.03.13.04.2,0,.44.04.67.04,0,0,0,0-.01,0,.12,0,.2.05.32.05,0,0,.02,0,.03-.01.02.04.68-.02.72,0,.01,0,.02,0,.04,0,.24.04.48.15.69.16.05-.02.1-.03.14-.05.03.02.05-.01.09,0,.1.1.17.07.12.03.09,0,.18.01.27.02.04,0,.08,0,.12,0,.03,0,.05.01.06.03.08,0,.06.01.14.03.02.03.22-.03.25-.01h-.01c.1.02.16.08.26.09.27.05.57.05.83.09,0-.03-.06,0-.06-.04.15.02.3.07.45.09.03.01.06.03.07.04.05.02.03-.01.06,0v.03c.06-.02.07.04.12.03,0-.01.02-.01.04,0,0,.03.05,0,.05.03h0s.02,0,.03,0c.02,0,.21-.07.24-.08h0s.04-.01.03-.02h.03s0,0,0,0h.03s.01.02,0,.03c.02,0,.04-.01.06,0-.05-.02-.12-.06-.17-.09.02,0,.06.01.09.01.03.02.09.04.13.06.01,0,.02-.03.04-.02,0,.02.03,0,.05.02-.02.01-.05,0-.07,0,0,.03.05.02.07.03,0,0,.05,0,.08,0-.01.02.02.02.04.03.02,0,.03,0,.02-.01,0-.03-.07-.02-.04-.05,0,.01.04.01.06.01,0-.02-.01-.01,0-.03.02,0,.05-.01.06,0,0,0-.01,0-.02,0,.03,0-.17.09-.13.08,0-.01.17-.08.15-.08-.02,0,.02-.03,0-.03l-.02.02s-.03-.04-.02-.05c.04,0-.13.09-.09.08h-.01s.06-.02.07,0c0-.02.02-.02.04-.02h0s.04,0,.03-.02c-.1,0,.08-.15-.02-.17.04.04-.02.03-.06.03,0-.01-.02-.03-.05-.04-.03,0-.02.01-.02.02-.01,0-.04-.02-.04-.04-.02.02-.03-.02-.06-.01-.02,0,0,0-.02.02-.03,0-.08-.01-.11-.02,0-.02-.04-.05-.01-.07.05,0-.02.04.03.04-.02-.04.05,0,.06-.03-.02-.02-.05-.02-.08-.02h0s-.08.01-.1-.01c0-.01,0-.02.02-.03h-.03s0,0,0,0c-.02,0-.03,0-.04,0,0-.01-.19.04-.18.03-.02,0-.03-.02-.05-.01,0,.01.24-.03.21-.02-.02-.02-.29.04-.3.02-.02,0-.04,0-.04.01-.03,0,.01-.03,0-.04,0,0,0,0,0,0l-.02-.02c-.05.02-.12-.02-.17,0,.02-.01.04-.04.07-.05h0s.03,0,.03-.01c-.03-.01-.06-.01-.09,0,0,0-.01,0-.02-.01,0,0,0,0,0,0,0,0,0-.01,0-.02,0,0,0,0,0,0-.02-.04-.12.01-.18-.01-.02,0,0,0-.02.01-.06-.02-.09-.04-.15-.05-.02.02-.02.02,0,.04h-.05c.05-.05-.08-.06-.03-.11-.01-.01-.04-.02-.07-.01,0,.01,0,.03-.04.03-.04-.02-.03-.01-.07-.03,0-.02,0-.02,0-.03-.06.01-.05-.04-.1-.04-.03,0-.1,0-.11.02-.05,0-.04-.03-.04-.05Z"/>
    </g>
    <path class="cls-3" d="M80.99,50.81h.06c-.2,0-.42,0-.63-.02.46.09,1,.18,1.36-.02.04.11.48.16.49.13.09-.02.19-.04.28-.05-.07,0-.13.02-.19.03.06,0,.13-.02.19-.03.6-.08,1.25-.05,1.92,0,.37.02,1.39.04,1.77.07.06,0,.11,0,.17.01q-.09,0-.19-.02c.23-.03.45-.06.65-.07-.04-.02-.04-.03-.13-.05h.1c.1-.03.31-.03.42-.05-.02.02.06.03.13.03l-.03-.02c.27,0,.59,0,.83,0,.03,0,.06,0,.07.02l.23-.02s.19.03.08.05c.17-.04.35-.01.52-.05.6,0,1.23-.03,1.84-.08h-.02c.22-.03.41-.09.67-.07.19-.04.45-.06.53-.13.22,0,.3-.04.51-.06-.05-.03.21-.04.1-.06-.14-.04-.15,0-.27-.04h0c-.56-.04-1.11-.06-1.68-.08-.38.03-.78,0-1.17.01-.42.01-.88.03-1.24.06-.09,0-.15-.02-.22-.03-.33.01-.75,0-1.13.02,0,0,.01,0,.02,0-.2,0-.35-.03-.54-.02,0,0-.03,0-.04.01-.03-.04-1.14.09-1.21.06-.02,0-.04,0-.06,0-.41-.02-.83-.1-1.19-.09-.08.02-.16.04-.23.06-.06-.02-.07.02-.15.01-.19-.08-.3-.05-.2-.02-.16.01-.31,0-.45,0-.06,0-.13.01-.19.02-.06,0-.09,0-.11-.03-.14.01-.1,0-.25-.02-.04-.03-.37.05-.41.04h.02c-.17,0-.29-.07-.45-.07-.47-.02-.98,0-1.41,0,0,.03.1,0,.1.03-.25,0-.51-.04-.77-.05-.05,0-.1-.02-.12-.03-.08-.01-.05.01-.11.01v-.03c-.1.02-.14-.03-.22-.02,0,.01-.03.01-.06.01,0-.03-.09,0-.09-.03h0s-.03,0-.05,0c-.03.01-.35.09-.38.1h-.02s-.07.02-.04.02h-.06s0,0,0,0h-.06s-.02-.02,0-.03c-.03.01-.07.02-.1.01.09.02.2.04.3.07-.04.01-.11,0-.15,0-.05-.02-.16-.04-.24-.05-.02,0-.03.03-.07.02-.02-.02-.05,0-.08-.02.04-.01.08,0,.12,0,0-.03-.1-.02-.13-.03-.01,0-.09,0-.14,0,.02-.03-.04-.02-.07-.03-.03,0-.05,0-.04.02-.01.03.13.02.08.05-.01-.01-.07,0-.11,0,0,.02.02.01,0,.03-.04,0-.08.02-.1,0,0,0,.02,0,.03,0-.05,0,.27-.1.2-.09.02.01-.28.09-.25.09.03,0-.02.03,0,.03l.03-.02s.06.03.04.04c-.07,0,.2-.11.14-.09h.02s-.09.03-.12,0c0,.02-.03.02-.06.03h-.01s-.07,0-.05.02c.17,0-.11.16.05.16-.07-.03.02-.03.1-.04,0,.01.04.03.09.04.05,0,.03-.01.04-.02.03,0,.07.01.07.03.04-.02.06.01.1,0,.04,0,0,0,.02-.02.06,0,.14,0,.18,0,.02.02.07.05.03.07-.09,0,.03-.04-.06-.04.04.04-.08.01-.1.04.03.02.09.02.14.01h0s.13-.02.17,0c-.01.01,0,.02-.02.03h.06s.02,0,0,0c.03-.01.06,0,.08,0,0,.01.31-.06.3-.05.04,0,.05.02.09,0,0-.01-.41.05-.35.04.04.02.48-.07.51-.04.03,0,.07,0,.06-.02.05,0-.02.03.02.04,0,0,0,0,0,0l.04.02c.08-.02.2,0,.29-.02-.02.02-.05.04-.11.06h0s-.05,0-.05.02c.05,0,.1,0,.15,0,.01,0,.02,0,.03.01,0,0,0,0,0,0,.02,0,.02.01,0,.02,0,0,0,0,0,0,.03.04.21-.03.3,0,.03,0,0,0,.04-.02.1.02.17.03.27.04.03-.02.04-.03,0-.04h.08c-.07.05.15.05.07.1.02.01.07.01.11,0,0-.01.01-.03.07-.03.08.02.06.01.12.03.01.02,0,.02,0,.03.1-.02.08.03.18.03.06,0,.17,0,.17-.03.08,0,.08.02.07.04Z"/>
    <g>
      <line class="cls-3" x1="77.02" y1="52.09" x2="92.36" y2="56.05"/>
      <path class="cls-3" d="M80.4,53.25l.06.02c-.21-.05-.42-.12-.63-.18.44.21.97.43,1.38.33.01.11.45.28.47.25.1,0,.2.01.3.03-.07,0-.14-.02-.2-.03.07,0,.14.02.2.03.63.08,1.28.28,1.95.5.37.12,1.39.4,1.77.53.06.02.11.04.17.05q-.09-.03-.18-.07c.24.03.46.06.68.1-.03-.02-.04-.04-.12-.08l.1.04c.11-.02.33.04.44.05-.03.02.05.04.12.06l-.02-.02c.27.08.6.14.84.21.03,0,.06.02.07.04l.24.04s.19.08.07.07c.19.01.36.08.54.08.6.15,1.25.29,1.88.4v-.02c.21.04.42.03.68.11.2,0,.47.06.56.01.22.05.32.04.53.08-.05-.05.22.02.12-.03-.13-.08-.15-.05-.26-.11h0c-.55-.18-1.11-.35-1.67-.51-.39-.07-.79-.2-1.19-.29-.43-.1-.89-.2-1.27-.27-.09-.01-.15-.06-.22-.09-.34-.07-.76-.19-1.15-.27,0,0,.01,0,.02,0-.2-.05-.34-.12-.54-.16,0,0-.03,0-.05,0-.02-.05-1.18-.21-1.24-.25-.02,0-.04,0-.06-.01-.41-.13-.82-.32-1.18-.4-.08,0-.17,0-.24,0-.06-.03-.08,0-.15-.03-.17-.13-.29-.13-.2-.07-.16-.03-.32-.08-.46-.11-.07-.01-.13-.02-.2-.03-.06,0-.09-.03-.11-.05-.15-.03-.1-.03-.25-.08-.03-.04-.39-.05-.43-.07h.03c-.17-.05-.27-.13-.44-.18-.47-.14-.99-.25-1.42-.38-.01.03.1.02.09.06-.26-.07-.51-.18-.76-.25-.04-.02-.1-.05-.12-.07-.08-.03-.05,0-.11-.02v-.03c-.1,0-.12-.06-.21-.07,0,0-.04,0-.07,0,0-.03-.09-.02-.08-.05h0s-.03,0-.05-.02c-.04,0-.38,0-.41,0h-.01s-.07,0-.05,0l-.06-.02h0s-.06-.02-.06-.02c-.01,0-.02-.02,0-.03-.04,0-.07,0-.11-.02.09.04.2.1.28.15-.04,0-.11-.03-.15-.04-.05-.03-.15-.08-.23-.11-.02,0-.04.03-.08,0-.01-.03-.05-.01-.08-.04.04,0,.08.01.12.02,0-.03-.09-.04-.12-.06-.02,0-.09-.02-.14-.03.03-.02-.03-.03-.06-.05-.03-.01-.05,0-.04,0-.02.02.12.05.07.07,0-.02-.07-.03-.11-.04,0,.01.02.02,0,.03-.04-.01-.08,0-.1-.03,0,0,.02,0,.03,0-.05-.01.29-.03.23-.04.01.02-.3.02-.27.03.03.02-.03.02,0,.03h.04s.05.04.03.04c-.07-.02.23-.05.16-.05h.02s-.1,0-.12-.02c0,.01-.04.01-.07,0h0s-.07-.02-.06,0c.18.04-.15.12.01.17-.06-.05.03-.03.11-.01,0,.01.03.04.08.06.05,0,.03,0,.04-.01.02.01.07.03.06.05.04-.01.05.03.1.03.04,0,0,0,.03-.01.06.02.14.04.18.06.01.02.06.06.01.08-.09-.03.04-.03-.05-.05.03.05-.08-.01-.11.01.02.02.08.04.13.05h0s.13.01.17.05c-.01.01,0,.03-.03.02l.06.02s.02,0,0-.01c.03,0,.06.01.08.02,0,.02.33.02.32.03.04.01.05.03.09.03,0,0-.42-.06-.36-.05.03.02.5.06.52.09.03,0,.07.01.07,0,.05.02-.02.02.01.05,0,0,0,0,.01,0l.03.03c.09,0,.2.06.3.05-.03,0-.06.03-.12.03h0s-.06-.01-.06,0c.05.02.1.03.16.03,0,0,.02.01.03.02,0,0,0,0,0,0,.02.01.01.01,0,.02,0,0,0,0,0,0,.02.05.22.03.31.07.03,0,0,0,.04,0,.1.04.16.07.26.11.04,0,.04-.02,0-.04l.08.03c-.08.03.14.08.04.11.02.02.07.03.11.03,0-.01.02-.03.07-.01.07.04.06.03.12.06.01.02-.01.02-.01.03.1,0,.08.06.17.08.06.01.17.04.18.01.08.02.07.04.06.06Z"/>
    </g>
    <g>
      <path class="cls-3" d="M59.43,59.7s2.19,1.76,4.94,1.69c-1.19,0-3.76.12-3.76.12-.39,0-.74-.26-.84-.64l-.34-1.17Z"/>
      <path class="cls-3" d="M61.59,61.18l.05.02c-.15-.05-.3-.12-.45-.19.29.22.68.45,1,.33,0,.11.33.25.34.22.09,0,.16,0,.23,0-.05,0-.1,0-.15,0,.06,0,.11,0,.15,0,.48,0,.97.12,1.51.14.04,0,.07,0,.12,0v-.63c-.33,0-.97,0-1.23-.03-.05,0-.09,0-.13,0q.07,0,.14.01c-.19.03-.37.07-.49.09.03.01.03.03.1.05h-.08c-.07.04-.24.04-.31.06.02-.02-.04-.03-.1-.03h.02c-.21.01-.44.04-.63.04-.03,0-.04,0-.06-.01l-.18.02s-.15-.02-.06-.04c-.13.04-.27.02-.39.06-.24,0-.46.05-.62,0-.18-.05-.34-.17-.45-.34h0c-.07-.1-.17-.24-.2-.43-.08-.12-.15-.31-.23-.35-.05-.15-.1-.21-.16-.36-.02.05-.08-.14-.08-.06-.01.11.02.11.01.21h0c.05.24.09.44.12.62.06.2.05.4.21.69.22.31.6.56,1.02.55.32-.02.66-.05.93-.09.06-.01.11.01.17.03.33-.02.45-.03.85-.05h-.01c.15-.01.26.02.41,0,0,0,.02-.01.03-.02.03.04.86-.12.91-.09.02,0,.04,0,.05,0,.14,0,.29.02.43.04v-.5c-.16-.03-.31-.05-.45-.05-.06.02-.1.03-.17.05-.04-.02-.06.01-.11,0-.13-.1-.21-.07-.15-.03-.12,0-.23-.03-.33-.04-.04,0-.09,0-.14,0-.04,0-.06-.02-.08-.04-.1,0-.07-.02-.17-.06-.02-.04-.28-.01-.3-.03h.02c-.12-.04-.18-.12-.3-.15-.32-.12-.67-.23-.95-.37-.02.03.07.02.05.06-.17-.08-.32-.19-.49-.29-.03-.02-.06-.06-.06-.07-.05-.04-.04,0-.07-.03v-.03c-.06-.01-.06-.07-.12-.09,0,0-.03,0-.05-.01.01-.03-.06-.03-.04-.05h0s-.02,0-.03-.02c-.03,0-.26-.05-.29-.05h0s-.05-.02-.04,0l-.03-.02h0s-.03-.02-.03-.02c0,0,0-.02.01-.03-.03,0-.05-.01-.07-.03.05.05.1.12.14.18-.03,0-.06-.05-.09-.06-.02-.04-.08-.09-.12-.14-.01,0-.04.02-.05-.01,0-.03-.03-.02-.04-.05.03,0,.05.03.07.04.01-.03-.05-.05-.06-.07-.01,0-.05-.04-.08-.05.03-.01-.01-.03-.02-.05-.02-.02-.03-.02-.03,0-.02.02.06.07.02.07,0-.02-.04-.04-.06-.05,0,.01,0,.02-.02.02-.02-.02-.05-.02-.05-.04,0,0,.01,0,.02.01-.03-.02.21.03.17.01,0,.02-.21-.04-.19-.03.01.02-.03.01-.02.03h.03s.01.05,0,.05c-.04-.03.18,0,.13-.01v.02s-.06-.02-.06-.05c0,.01-.03,0-.05,0h0s-.04-.03-.04,0c.1.07-.16.07-.07.15-.02-.06.03-.02.08.01,0,.01,0,.04.03.07.03.02.02,0,.03,0,.01.02.04.04.02.06.03,0,.03.04.06.05.03,0,0,0,.03,0,.03.02.07.05.11.08,0,.02.02.07-.02.07-.05-.04.04-.02-.02-.05,0,.05-.06-.02-.08,0,0,.03.04.05.08.07h0s.09.03.11.07c-.01,0,0,.02-.03.01l.04.03s.01,0,0-.01c.02,0,.04.02.05.03,0,.01.23.07.22.07.03.02.02.04.06.04,0,0-.29-.12-.25-.1.02.03.35.13.35.16.02.01.05.02.05,0,.03.03-.02.02,0,.04,0,0,0,0,0,0l.02.03c.06.01.13.08.2.08-.02,0-.06.02-.1.01h0s-.04-.02-.05,0c.03.03.06.04.11.05l.02.02h0s0,0,0,.01h0c0,.05.15.05.21.1.02,0,0,0,.03,0,.06.05.1.08.17.12.03,0,.03-.01.02-.04l.05.03c-.07.02.08.09,0,.11.01.02.04.03.08.04,0,0,.02-.03.06,0,.05.04.03.02.08.06,0,.02-.01.02-.02.03.08,0,.05.06.12.08.04.01.13.04.14.02.06.02.05.04.04.06Z"/>
    </g>
  </g>
</svg>